<svg width="25" height="24" viewBox="0 0 25 24" fill="none" xmlns="http://www.w3.org/2000/svg">
<rect width="24" height="24" rx="12" transform="matrix(-1 0 0 1 24.5 0)" fill="#36384F"/>
<path d="M21.1675 12.8314C21.7411 12.8314 22.206 12.3665 22.206 11.793C22.206 11.2194 21.7411 10.7545 21.1675 10.7545V12.8314ZM3.55653 11.0587C3.15098 11.4642 3.15098 12.1217 3.55653 12.5273L10.1653 19.136C10.5708 19.5415 11.2283 19.5415 11.6339 19.136C12.0394 18.7305 12.0394 18.0729 11.6339 17.6674L5.75944 11.793L11.6339 5.91854C12.0394 5.513 12.0394 4.85548 11.6339 4.44994C11.2283 4.04439 10.5708 4.04439 10.1653 4.44994L3.55653 11.0587ZM21.1675 10.7545H4.29083V12.8314H21.1675V10.7545Z" fill="#F2EFDB"/>
</svg>
