<svg width="14" height="14" viewBox="0 0 14 14" fill="none" xmlns="http://www.w3.org/2000/svg">
    <path
        d="M6.52181 1.64476C6.67547 1.33347 6.75229 1.17782 6.85659 1.12809C6.94734 1.08483 7.05277 1.08483 7.14351 1.12809C7.24781 1.17782 7.32464 1.33347 7.4783 1.64476L8.93608 4.59807C8.98144 4.68997 9.00413 4.73592 9.03727 4.7716C9.06662 4.80319 9.10182 4.82878 9.14092 4.84696C9.18508 4.8675 9.23578 4.87491 9.33719 4.88973L12.598 5.36635C12.9414 5.41654 13.1131 5.44164 13.1926 5.52551C13.2617 5.59848 13.2942 5.69875 13.281 5.7984C13.2659 5.91294 13.1416 6.034 12.893 6.27614L10.5343 8.5735C10.4608 8.64511 10.424 8.68092 10.4003 8.72352C10.3793 8.76125 10.3658 8.80269 10.3607 8.84555C10.3548 8.89396 10.3635 8.94455 10.3808 9.04571L10.9373 12.2906C10.996 12.6329 11.0254 12.804 10.9702 12.9055C10.9222 12.9939 10.8369 13.0559 10.7381 13.0742C10.6245 13.0953 10.4708 13.0144 10.1634 12.8528L7.24829 11.3198C7.15746 11.272 7.11205 11.2481 7.0642 11.2387C7.02184 11.2304 6.97827 11.2304 6.9359 11.2387C6.88806 11.2481 6.84264 11.272 6.75181 11.3198L3.83666 12.8528C3.52932 13.0144 3.37565 13.0953 3.26202 13.0742C3.16316 13.0559 3.07786 12.9939 3.02987 12.9055C2.97471 12.804 3.00406 12.6329 3.06276 12.2906L3.6193 9.04571C3.63665 8.94455 3.64532 8.89396 3.63945 8.84555C3.63426 8.80269 3.62078 8.76125 3.59978 8.72352C3.57606 8.68092 3.53929 8.64511 3.46576 8.57349L1.10708 6.27614C0.858483 6.034 0.734184 5.91294 0.719058 5.7984C0.705898 5.69875 0.73841 5.59848 0.807541 5.52551C0.886997 5.44164 1.05869 5.41654 1.40207 5.36635L4.66291 4.88973C4.76432 4.87491 4.81503 4.8675 4.85919 4.84696C4.89828 4.82878 4.93348 4.80319 4.96283 4.7716C4.99598 4.73592 5.01866 4.68997 5.06402 4.59807L6.52181 1.64476Z"
        fill="#36384F" stroke="#36384F" stroke-linecap="round" stroke-linejoin="round" />
</svg>