<svg width="17" height="16" viewBox="0 0 17 16" fill="none" xmlns="http://www.w3.org/2000/svg">
<path d="M8.02176 2.30223C8.17542 1.99094 8.25225 1.83529 8.35655 1.78556C8.44729 1.7423 8.55272 1.7423 8.64347 1.78556C8.74776 1.83529 8.82459 1.99094 8.97825 2.30223L10.436 5.25554C10.4814 5.34744 10.5041 5.39339 10.5372 5.42907C10.5666 5.46066 10.6018 5.48625 10.6409 5.50443C10.685 5.52497 10.7357 5.53238 10.8371 5.5472L14.098 6.02382C14.4414 6.07401 14.6131 6.09911 14.6925 6.18298C14.7616 6.25595 14.7942 6.35622 14.781 6.45587C14.7659 6.57041 14.6416 6.69147 14.393 6.93361L12.0343 9.23097C11.9608 9.30258 11.924 9.33839 11.9003 9.381C11.8793 9.41872 11.8658 9.46016 11.8606 9.50302C11.8547 9.55143 11.8634 9.60202 11.8808 9.70318L12.4373 12.9481C12.496 13.2903 12.5254 13.4615 12.4702 13.563C12.4222 13.6514 12.3369 13.7133 12.238 13.7317C12.1244 13.7527 11.9707 13.6719 11.6634 13.5103L8.74825 11.9772C8.65742 11.9295 8.612 11.9056 8.56416 11.8962C8.52179 11.8879 8.47822 11.8879 8.43586 11.8962C8.38801 11.9056 8.3426 11.9295 8.25177 11.9772L5.33661 13.5103C5.02927 13.6719 4.8756 13.7527 4.76198 13.7317C4.66312 13.7133 4.57781 13.6514 4.52982 13.563C4.47466 13.4615 4.50401 13.2903 4.56271 12.9481L5.11925 9.70318C5.1366 9.60202 5.14528 9.55143 5.13941 9.50302C5.13421 9.46016 5.12074 9.41872 5.09973 9.381C5.07601 9.33839 5.03925 9.30258 4.96572 9.23097L2.60703 6.93361C2.35844 6.69147 2.23414 6.57041 2.21901 6.45587C2.20585 6.35622 2.23836 6.25595 2.3075 6.18298C2.38695 6.09911 2.55864 6.07401 2.90202 6.02382L6.16287 5.5472C6.26428 5.53238 6.31498 5.52497 6.35914 5.50443C6.39824 5.48625 6.43344 5.46066 6.46279 5.42907C6.49593 5.39339 6.51861 5.34744 6.56398 5.25554L8.02176 2.30223Z" fill="#36384F" stroke="#36384F" stroke-linecap="round" stroke-linejoin="round"/>
</svg>
