<svg width="25" height="24" viewBox="0 0 25 24" fill="none" xmlns="http://www.w3.org/2000/svg">
<rect x="0.5" width="24" height="24" rx="12" fill="#36384F"/>
<path d="M3.83246 12.8314C3.25893 12.8314 2.794 12.3665 2.794 11.793C2.794 11.2194 3.25893 10.7545 3.83246 10.7545V12.8314ZM21.4435 11.0587C21.849 11.4642 21.849 12.1217 21.4435 12.5273L14.8347 19.136C14.4292 19.5415 13.7717 19.5415 13.3661 19.136C12.9606 18.7305 12.9606 18.0729 13.3661 17.6674L19.2406 11.793L13.3661 5.91854C12.9606 5.513 12.9606 4.85548 13.3661 4.44994C13.7717 4.04439 14.4292 4.04439 14.8347 4.44994L21.4435 11.0587ZM3.83246 10.7545H20.7092V12.8314H3.83246V10.7545Z" fill="#F2EFDB"/>
</svg>
